<svg version="1.1" xmlns="http://www.w3.org/2000/svg" x="0" y="0" viewBox="0 0 612 612" xml:space="preserve"><path d="M437.5 174.5c5.1 5.1 13.4 5.1 18.6 0L608.2 22.4c5.1-5.1 5.1-13.4 0-18.6 -5.1-5.1-13.4-5.1-18.5 0L437.5 155.9C432.4 161.1 432.4 169.4 437.5 174.5zM569 289.5l-16.7-183.4 -45.8 45.8c2.7 17-2.5 35-15.6 48.1 -21.8 21.8-57.1 21.8-78.8 0 -21.8-21.8-21.8-57.1 0-78.9 13.1-13.1 31.1-18.3 48.1-15.6l45.8-45.8L322.5 43.1c-7.2-0.6-14.4 1.9-19.5 7.1L7.2 345.9c-9.5 9.5-9.5 25 0 34.5l65.8 65.8 32.5-32.5 92.8 92.8 -32.5 32.5 65.8 65.8c9.5 9.5 25 9.5 34.5 0l295.9-295.8C567 303.9 569.6 296.7 569 289.5z"/></svg>