<svg xmlns="http://www.w3.org/2000/svg" xmlns:xlink="http://www.w3.org/1999/xlink" preserveAspectRatio="xMidYMid" viewBox="0 0 61 61">
<path d="M55.102,55.784 L51.059,59.827 C50.336,60.546 48.222,61.000 48.158,61.000 C35.358,61.108 23.034,56.082 13.977,47.023 C4.894,37.942 -0.138,25.571 0.002,12.733 C0.002,12.725 0.465,10.670 1.186,9.956 L5.229,5.908 C6.713,4.427 9.554,3.756 11.544,4.419 L12.397,4.706 C14.387,5.369 16.466,7.565 17.017,9.587 L19.054,17.059 C19.607,19.085 18.864,21.966 17.382,23.448 L14.679,26.151 C17.330,35.976 25.035,43.680 34.855,46.334 L37.558,43.631 C39.040,42.149 41.930,41.408 43.955,41.959 L51.428,44.000 C53.446,44.547 55.643,46.625 56.309,48.616 L56.592,49.469 C57.254,51.461 56.584,54.302 55.102,55.784 ZM34.312,30.500 L38.124,30.500 C38.124,26.289 34.710,22.875 30.499,22.875 L30.499,26.687 C32.601,26.687 34.312,28.400 34.312,30.500 ZM49.562,30.500 C49.562,19.971 41.028,11.437 30.499,11.437 L30.499,15.250 C38.910,15.250 45.750,22.093 45.750,30.500 L49.562,30.500 ZM30.499,-0.000 L30.499,3.812 C45.213,3.812 57.187,15.786 57.187,30.500 L61.000,30.500 C61.000,13.656 47.343,-0.000 30.499,-0.000 Z" class="cls-1"/>
</svg>
