<svg version="1" xmlns="http://www.w3.org/2000/svg" width="346.667" height="346.667" viewBox="0 0 260.000000 260.000000"><path d="M113.1 1C57.5 8.8 14.4 49.3 2.4 105.1c-2.6 11.8-2.6 38 0 49.8 5.9 27.3 16.7 47.4 36 66.7 19.3 19.3 39.4 30.1 66.7 36 11.8 2.6 38 2.6 49.8 0 51.7-11.1 90-48.4 101.9-99 2.2-9.6 2.6-13.4 2.6-28.1 0-12.8-.4-19.1-1.8-25.4-5.9-27.3-16.7-47.4-36-66.7-19-18.9-38.4-29.6-64.6-35.5C147.1.6 123-.4 113.1 1zM59.2 53.2c.3.9 2.1.9 7.6 0 3.9-.7 9.7-1.2 13-1.2 10 0 9.6-1.4 10 36.6l.3 32.4H74V93.6c0-15.1-.3-27.7-.8-27.9-.4-.3-3.7-.3-7.5 0l-6.7.6V121H43V52h7.9c5.2 0 8.1.4 8.3 1.2zm80.3 1.3c2.4 2.3 2.5 2.9 2.5 16.8 0 18.9.4 18.5-17 18.9l-12.5.3-.3 9.2-.3 9.3H127V98h15v9c0 8.3-.2 9.3-2.5 11.5-2.4 2.5-2.7 2.5-20 2.5s-17.6 0-20-2.5l-2.5-2.4V56.9l2.5-2.4c2.4-2.5 2.7-2.5 20-2.5s17.6 0 20 2.5zm22-.3c.3 1.3 1.9 10.4 3.6 20.3 1.7 9.9 3.2 18.1 3.3 18.3.3.2 2.8-13.7 5.9-32.8l1.3-7.5 6.1-.3c7.2-.3 5.9-3 9.8 21.3 1.5 8.8 2.9 16.8 3.3 17.8.4 1.1 2.1-6.4 4.1-18.7l3.5-20.6h7.8c7.1 0 7.9.2 7.4 1.7-.3 1-3.5 15.7-7.1 32.8-3.6 17-6.8 31.8-7.1 32.7-.4 1.5-1.7 1.8-7.4 1.8-8 0-6.9 1.8-10.5-17.5-1.4-7.7-2.9-14.8-3.3-15.8-.5-1.2-2 4.3-4.2 15.7l-3.4 17.6h-14.1l-6.9-32.8c-3.9-18-7.2-33.5-7.4-34.5-.4-1.5.4-1.7 7.2-1.7 7 0 7.6.2 8.1 2.2zM70.7 133c6 3.6 6.3 5.3 6.3 32.5 0 27.5-.5 30.1-6.2 33.2-2.5 1.3-6.3 1.8-16 2.1l-12.8.4V131h12.8c10.8 0 13.2.3 15.9 2zm40.3 3v5H93v18.9l7.8.3 7.7.3v9l-7.7.3-7.8.3V191h18v10.1l-14.2-.3-14.3-.3-.3-34.8L82 131h29v5zm27.9.2c3.4 17.1 12.1 63 12.1 63.9 0 .6-2.1.9-5.2.7l-5.3-.3-1-6.5-1-6.5-6.2-.3-6.2-.3-.6 3.8c-1.8 10-1.6 9.8-7.1 9.8-3.7 0-4.9-.4-4.8-1.5.1-.8 3-16.5 6.5-34.7l6.4-33.3h11.4l1 5.2zM165 161v30h17.1l-.3 4.7-.3 4.8h-27l-.3-34.8-.2-34.7h11v30zm52.4-27.8c1.2 1.6 1.6 4.7 1.6 11v8.8h-11v-13h-12v12.3l11.5 11.1 11.5 11.1v11.1c0 15.4.6 14.9-17 14.9s-17.2.3-16.8-13.5l.3-9.5h10l.3 6.7.3 6.8H208v-12.7l-10.5-10.2c-5.8-5.6-10.9-11.1-11.5-12.1-.5-1-1-6.1-1-11.2 0-13.9-.2-13.8 17-13.8 13.2 0 14 .1 15.4 2.2z"/><path d="M112 72v8h15V64h-15v8zM53 165.5V191h5.3c2.9 0 5.8-.5 6.5-1.2.9-.9 1.2-7.6 1.2-23.9 0-22.4 0-22.8-2.2-24.3-1.2-.9-4.2-1.6-6.5-1.6H53v25.5zM131.7 153c-.4 1.4-1.5 7.6-2.5 13.7l-1.9 11.3h9.6l-.6-3.8c-2.7-17.2-4-23.5-4.6-21.2z"/></svg>