<?xml version="1.0" standalone="no"?>
<!DOCTYPE svg PUBLIC "-//W3C//DTD SVG 20010904//EN"
 "http://www.w3.org/TR/2001/REC-SVG-20010904/DTD/svg10.dtd">
<svg version="1.0" xmlns="http://www.w3.org/2000/svg"
 width="260.000000pt" height="260.000000pt" viewBox="0 0 260.000000 260.000000"
 preserveAspectRatio="xMidYMid meet">
<metadata>
Created by potrace 1.11, written by Peter Selinger 2001-2013
</metadata>
<g transform="translate(0.000000,260.000000) scale(0.100000,-0.100000)"
fill="#000000" stroke="none">
<path d="M805 2501 c-170 -98 -668 -596 -766 -766 l-29 -50 0 -370 0 -370 29
-50 c98 -170 596 -668 766 -766 l50 -29 774 0 c583 0 784 3 815 12 53 16 118
81 134 134 17 60 17 2078 0 2138 -16 53 -81 118 -134 134 -31 9 -232 12 -815
12 l-774 0 -50 -29z m745 -465 c90 -22 230 -77 230 -90 0 -6 -32 -90 -70 -186
-44 -110 -75 -174 -82 -172 -7 2 -47 16 -90 32 -287 110 -447 21 -465 -260
-12 -176 36 -309 127 -358 42 -22 53 -23 160 -19 126 5 214 29 316 87 30 16
56 30 59 30 3 0 5 -89 5 -199 l0 -199 -68 -35 c-126 -66 -203 -82 -402 -82
-155 0 -183 3 -250 23 -178 56 -304 159 -374 304 -113 237 -109 581 10 808 89
171 265 291 484 329 78 14 332 6 410 -13z"/>
</g>
</svg>
