<svg xmlns="http://www.w3.org/2000/svg" xmlns:xlink="http://www.w3.org/1999/xlink" preserveAspectRatio="xMidYMid" viewBox="0 0 69.5 69.625">
<path d="M34.753,0.006 C15.558,0.006 -0.002,15.593 -0.002,34.817 C-0.002,54.042 15.558,69.629 34.753,69.629 C53.947,69.629 69.509,54.042 69.509,34.817 C69.509,15.593 53.948,0.006 34.753,0.006 ZM48.780,40.873 L40.762,40.873 L40.762,48.885 C40.762,52.230 38.093,54.940 34.755,54.940 C31.418,54.940 28.749,52.230 28.749,48.885 L28.749,40.871 L20.734,40.871 C17.396,40.871 14.675,38.159 14.675,34.816 C14.675,31.473 17.391,28.762 20.729,28.762 L28.749,28.762 L28.749,20.750 C28.749,17.405 31.418,14.695 34.755,14.695 C38.093,14.695 40.762,17.405 40.762,20.750 L40.762,28.764 L48.780,28.764 C52.118,28.764 54.826,31.476 54.826,34.819 C54.826,38.162 52.118,40.873 48.780,40.873 Z"/>
</svg>
