<svg xmlns="http://www.w3.org/2000/svg" xmlns:xlink="http://www.w3.org/1999/xlink" preserveAspectRatio="xMidYMid" viewBox="0 0 85.688 67.281">
<path d="M62.062,38.099 C61.337,39.463 60.000,40.301 58.549,40.301 L27.109,40.301 C25.662,40.301 24.322,39.463 23.597,38.099 C22.871,36.738 22.871,35.059 23.597,33.695 L31.458,18.917 C32.182,17.554 33.521,16.716 34.970,16.716 L50.686,16.716 C52.134,16.716 53.473,17.554 54.198,18.917 L62.060,33.695 C62.787,35.059 62.787,36.738 62.062,38.099 ZM38.993,60.667 L31.134,45.892 C30.410,44.528 29.071,43.690 27.622,43.690 L11.904,43.690 C10.457,43.690 9.118,44.528 8.394,45.892 L0.532,60.667 C-0.193,62.030 -0.193,63.709 0.532,65.070 C1.257,66.433 2.595,67.272 4.046,67.272 L35.480,67.272 C36.928,67.272 38.268,66.433 38.991,65.070 C39.718,63.709 39.718,62.030 38.993,60.667 ZM85.128,60.667 L77.267,45.892 C76.542,44.528 75.207,43.690 73.757,43.690 L58.039,43.690 C56.593,43.690 55.250,44.528 54.527,45.892 L46.668,60.667 C45.942,62.030 45.942,63.709 46.668,65.070 C47.391,66.433 48.731,67.272 50.178,67.272 L81.614,67.272 C83.064,67.272 84.405,66.433 85.128,65.070 C85.856,63.709 85.856,62.030 85.128,60.667 ZM70.549,18.157 L69.148,24.749 L62.566,26.155 L69.148,27.556 L70.549,34.149 L71.950,27.556 L78.533,26.155 L71.950,24.749 L70.549,18.157 ZM19.517,10.465 L18.115,17.056 L11.532,18.462 L18.115,19.865 L19.517,26.456 L20.918,19.865 L27.501,18.462 L20.918,17.056 L19.517,10.465 ZM53.023,0.007 L51.619,6.598 L45.037,8.003 L51.619,9.406 L53.023,15.997 L54.426,9.406 L61.008,8.003 L54.426,6.598 L53.023,0.007 Z"/>
</svg>
