<svg xmlns="http://www.w3.org/2000/svg" xmlns:xlink="http://www.w3.org/1999/xlink" preserveAspectRatio="xMidYMid" viewBox="0 0 85.75 85.875">
<path d="M85.464,38.159 C85.328,36.953 83.923,36.045 82.708,36.045 C78.780,36.045 75.294,33.736 73.832,30.162 C72.340,26.502 73.303,22.235 76.229,19.546 C77.151,18.702 77.263,17.289 76.490,16.308 C74.479,13.751 72.195,11.440 69.700,9.438 C68.724,8.654 67.289,8.763 66.442,9.702 C63.887,12.537 59.298,13.590 55.751,12.108 C52.062,10.553 49.733,6.807 49.962,2.787 C50.037,1.523 49.115,0.425 47.857,0.278 C44.655,-0.093 41.425,-0.104 38.213,0.253 C36.972,0.390 36.050,1.462 36.092,2.710 C36.231,6.691 33.876,10.371 30.222,11.870 C26.718,13.304 22.160,12.258 19.611,9.449 C18.768,8.524 17.359,8.410 16.376,9.178 C13.807,11.197 11.471,13.508 9.442,16.045 C8.651,17.031 8.768,18.460 9.697,19.307 C12.681,22.013 13.643,26.317 12.094,30.020 C10.615,33.549 6.956,35.823 2.767,35.823 C1.408,35.779 0.441,36.694 0.291,37.932 C-0.086,41.156 -0.090,44.443 0.273,47.694 C0.408,48.906 1.855,49.806 3.084,49.806 C6.817,49.711 10.399,52.025 11.904,55.689 C13.402,59.348 12.438,63.614 9.506,66.306 C8.590,67.150 8.472,68.560 9.247,69.540 C11.237,72.081 13.524,74.393 16.026,76.412 C17.009,77.205 18.438,77.094 19.289,76.153 C21.854,73.313 26.443,72.261 29.975,73.746 C33.675,75.297 36.003,79.042 35.776,83.064 C35.701,84.328 36.626,85.429 37.879,85.572 C39.517,85.764 41.165,85.860 42.817,85.860 C44.385,85.860 45.954,85.774 47.523,85.599 C48.765,85.461 49.685,84.388 49.644,83.140 C49.500,79.161 51.860,75.481 55.510,73.985 C59.037,72.542 63.574,73.598 66.125,76.403 C66.973,77.326 68.373,77.439 69.360,76.674 C71.924,74.660 74.256,72.350 76.294,69.807 C77.086,68.823 76.974,67.392 76.039,66.543 C73.055,63.838 72.088,59.533 73.638,55.834 C75.094,52.352 78.617,50.014 82.406,50.014 L82.936,50.028 C84.166,50.128 85.297,49.179 85.445,47.922 C85.824,44.695 85.828,41.411 85.464,38.159 ZM42.868,67.678 C29.220,67.678 18.156,56.596 18.156,42.926 C18.156,29.256 29.220,18.175 42.868,18.175 C56.517,18.175 67.581,29.256 67.581,42.926 C67.581,47.566 66.303,51.906 64.085,55.618 L53.264,44.779 C54.048,42.929 54.462,40.923 54.461,38.853 C54.461,34.800 52.885,30.990 50.023,28.124 C47.162,25.259 43.358,23.680 39.312,23.680 C37.962,23.680 36.618,23.860 35.317,24.215 C34.748,24.370 34.282,24.840 34.131,25.412 C33.976,25.996 34.150,26.595 34.606,27.052 C34.606,27.052 39.948,32.444 41.736,34.234 C41.923,34.422 41.923,34.869 41.896,35.030 L41.880,35.148 C41.700,37.116 41.352,39.479 41.066,40.387 C41.027,40.425 40.991,40.457 40.951,40.497 C40.910,40.538 40.872,40.578 40.833,40.618 C39.914,40.914 37.519,41.266 35.523,41.445 L35.524,41.434 L35.434,41.457 C35.418,41.458 35.388,41.461 35.349,41.461 C35.133,41.461 34.816,41.400 34.527,41.112 C32.667,39.248 27.534,34.144 27.534,34.144 C27.074,33.684 26.601,33.588 26.287,33.588 C25.553,33.588 24.896,34.119 24.689,34.880 C23.276,40.118 24.774,45.751 28.599,49.582 C31.461,52.448 35.265,54.027 39.312,54.027 C41.379,54.027 43.381,53.613 45.228,52.828 L56.166,63.784 C52.326,66.245 47.766,67.678 42.868,67.678 Z"/>
</svg>
