<svg xmlns="http://www.w3.org/2000/svg" xmlns:xlink="http://www.w3.org/1999/xlink" preserveAspectRatio="xMidYMid" viewBox="0 0 76.469 76.594"><path d="M38.246,0.005 C17.124,0.005 0.013,17.143 0.013,38.299 C0.013,59.454 17.124,76.593 38.246,76.593 C59.367,76.593 76.478,59.454 76.478,38.299 C76.478,17.143 59.367,0.005 38.246,0.005 ZM62.239,33.959 L50.327,45.209 L53.963,58.263 C54.694,60.901 53.403,61.905 51.041,60.492 L38.246,52.765 L25.433,60.475 C23.089,61.888 21.712,60.884 22.375,58.212 L25.892,44.017 L14.354,33.823 C12.298,32.002 12.859,30.538 15.595,30.538 L29.614,30.538 L36.275,15.016 C37.362,12.497 39.095,12.497 40.149,15.033 L46.657,30.538 L60.862,30.538 C63.615,30.555 64.227,32.087 62.239,33.959 Z"/>
</svg>
