<svg xmlns="http://www.w3.org/2000/svg" xmlns:xlink="http://www.w3.org/1999/xlink" preserveAspectRatio="xMidYMid" viewBox="0 0 56.779 82.375"><path d="M28.389,56.623 C12.713,56.623 0.005,43.947 0.005,28.309 C0.005,12.672 12.713,-0.004 28.389,-0.004 C44.066,-0.004 56.775,12.672 56.775,28.309 C56.775,43.947 44.066,56.623 28.389,56.623 ZM28.389,5.725 C15.905,5.725 5.749,15.856 5.749,28.309 C5.749,40.763 15.905,50.894 28.389,50.894 C40.874,50.894 51.031,40.763 51.031,28.309 C51.031,15.856 40.874,5.725 28.389,5.725 ZM28.389,46.743 C18.200,46.743 9.909,38.474 9.909,28.309 C9.909,18.145 18.200,9.875 28.389,9.875 C38.580,9.875 46.870,18.145 46.870,28.309 C46.870,38.474 38.580,46.743 28.389,46.743 ZM26.078,80.786 C26.078,82.308 25.057,82.829 23.815,81.945 L19.240,78.672 C17.998,77.788 15.937,77.779 14.687,78.651 L9.865,81.966 C8.615,82.839 7.494,82.308 7.494,80.786 L7.494,53.276 C12.764,57.660 19.421,60.239 26.078,60.697 L26.078,80.786 ZM48.823,80.786 C48.823,82.308 47.802,82.829 46.560,81.945 L41.985,78.672 C40.743,77.788 38.682,77.779 37.432,78.651 L32.609,81.966 C31.360,82.839 30.239,82.308 30.239,80.786 L30.239,60.714 C37.173,60.315 43.553,57.808 48.823,53.506 L48.823,80.786 Z"/>
</svg>
