<svg version="1.1" xmlns="http://www.w3.org/2000/svg" x="0" y="0" viewBox="0 0 512 512" xml:space="preserve"><path d="M420.3 64l54.8 384H36.9L91.8 64H420.3M448 32H64L0 480h512L448 32 448 32zM384 128c0-17.7-14.3-32-32-32s-32 14.3-32 32c0 10.9 5.8 20.1 14.3 25.9C326.5 211.4 293.8 256 256 256c-37.8 0-70.5-44.6-78.2-102.1C186.2 148.1 192 138.9 192 128c0-17.7-14.3-32-32-32s-32 14.3-32 32c0 12.6 7.4 23.2 17.9 28.4C155.1 232.1 200 288 256 288s100.9-55.9 110.1-131.6C376.6 151.2 384 140.6 384 128z"/></svg>