<svg version="1.1" xmlns="http://www.w3.org/2000/svg" x="0" y="0" viewBox="0 0 32 32" xml:space="preserve"><path d="M32 0.8c-0.1-0.5-0.7-0.9-1.2-0.7l-4 1c-0.4 0.1-0.7 0.4-0.7 0.8l-0.5 3.2L0.9 8c0 0 0 0-0.1 0C0.8 8 0.8 8 0.8 8c-0.1 0-0.1 0-0.1 0.1 -0.1 0-0.1 0-0.2 0.1C0.4 8.2 0.3 8.3 0.3 8.4 0.2 8.4 0.2 8.4 0.2 8.4c0 0 0 0 0 0C0.1 8.6 0.1 8.7 0.1 8.7c0 0 0 0.1 0 0.1C0 9 0 9.1 0 9.3l3 12 1 4c0 0 0 0.1 0 0.1 0 0 0 0.1 0.1 0.1 0 0.1 0.1 0.1 0.1 0.2 0 0 0.1 0.1 0.1 0.1 0.1 0.1 0.1 0.1 0.2 0.1 0 0 0.1 0 0.1 0.1 0.1 0 0.2 0.1 0.4 0.1h21c0.6 0 1-0.4 1-1 0-0.6-0.4-1-1-1H5.8l-0.5-2h18.7c0.1 0 0.2 0 0.4-0.1 0 0 0.1 0 0.1-0.1 0.1 0 0.1-0.1 0.2-0.1 0 0 0.1-0.1 0.1-0.1 0-0.1 0.1-0.1 0.1-0.1 0-0.1 0-0.1 0.1-0.2 0-0.1 0-0.1 0.1-0.2l0 0v0L27.9 2.8l3.4-0.8C31.8 1.9 32.1 1.3 32 0.8zM4.8 20L2.2 9.9l3.1-0.4 1.5 10.5H4.8zM8.9 20L7.3 9.3l3.1-0.4 0.5 11.1H8.9zM15.1 20h-2.1L12.4 8.6l3.1-0.4L15.1 20zM19.1 20H17.1l0.5-12 3.1-0.4L19.1 20zM23.1 20h-2l1.6-12.6 2.1-0.3L23.1 20zM9 28c-1.1 0-2 0.9-2 2 0 1.1 0.9 2 2 2 1.1 0 2-0.9 2-2C11 28.9 10.1 28 9 28zM22 28c-1.1 0-2 0.9-2 2 0 1.1 0.9 2 2 2 1.1 0 2-0.9 2-2C24 28.9 23.1 28 22 28z"/></svg>