<svg version="1.1" xmlns="http://www.w3.org/2000/svg" x="0" y="0" viewBox="0 0 485.2 485.2" xml:space="preserve"><path d="M121.3 75.8H30.3C13.6 75.8 0 89.4 0 106.1v333.6c0 16.8 13.6 30.3 30.3 30.3h91c16.8 0 30.3-13.6 30.3-30.3V106.1C151.6 89.4 138.1 75.8 121.3 75.8zM45.5 379.1c-8.4 0-15.2-6.8-15.2-15.2 0-8.4 6.8-15.2 15.2-15.2 8.4 0 15.2 6.8 15.2 15.2C60.7 372.3 53.9 379.1 45.5 379.1zM121.3 197.1H30.3v-30.3h91V197.1zM121.3 136.5H30.3v-30.3h91V136.5zM318.4 409.4v-30.3h-91v30.3c-16.8 0-30.3 13.6-30.3 30.3h151.6C348.7 423 335.2 409.4 318.4 409.4zM454.9 15.2H91c-16.8 0-30.3 13.6-30.3 30.3h30.3 91 272.9v242.6H182v60.7h272.9c16.8 0 30.3-13.6 30.3-30.3V45.5C485.2 28.8 471.6 15.2 454.9 15.2zM272.9 333.6c-8.4 0-15.2-6.8-15.2-15.2 0-8.4 6.8-15.2 15.2-15.2 8.4 0 15.2 6.8 15.2 15.2C288.1 326.8 281.3 333.6 272.9 333.6z"/></svg>