<svg version="1.1" xmlns="http://www.w3.org/2000/svg" x="0" y="0" viewBox="0 0 60.3 60.3" xml:space="preserve"><path d="M19.2 14.4c0 0 0 0 0 0 -0.1-0.1-0.1-0.1-0.2-0.2C19.2 14.3 19.2 14.3 19.2 14.4zM59.8 37.4c-0.9-0.3-7.8 0.3-10-0.9 -1.5-0.9-1.2-2-3.8-2.2 0 0 0 0 0 0 0 0-0.1 0-0.1 0 -0.3-0.1-0.6-0.2-0.9-0.3 -0.1 0-0.1 0-0.2-0.1 -0.5-0.1-0.9-0.2-1.4-0.3 -2.4-0.5-4.9-0.6-7.2-1.6 -0.4-0.2-0.8-0.4-1.2-0.6 -2.1-1.3-4-2.9-5.6-4.8 -0.8-0.9-1.6-1.8-2.3-2.7 -2-2.4-3.9-5.5-5.9-8.5 -0.3-0.4-0.6-0.8-0.9-1.2 -1.2-1.6-2.4-3.1-3.7-4.4 -0.4-0.4-0.8-0.8-1.3-1.1 -0.3-0.3-0.6-0.5-1-0.7 0 0 0 0-0.1-0.1C9.2 1.6 7.2 3.5 7.2 3.5s-10.9 8.1-5.9 19c0.1 0.2 0.2 0.5 0.3 0.7 0 0 0 0 0 0.1 2.1 4.4 7.5 3.8 11.5 5.2 0.7 0.1 1.4 0.4 2.3 0.8C23.5 33.6 28.7 51.5 31.8 54.8c3.1 3.3 13.1 2 13.1 2s7-2.8 11.4-5C60.6 49.7 60.7 37.7 59.8 37.4zM29.2 29.9c-1.8-2-3.6-4.1-5.3-6.3 -1.4-1.7-2.8-3.6-3.9-5.5 -1.7-2.6-3.3-5.4-4.6-8.2 0.9 0.8 1.7 1.7 2.5 2.6 0.3 0.3 0.5 0.6 0.8 0.9 0.2 0.3 0.5 0.6 0.7 0.9 1 1.4 2 2.8 3 4.2 1.7 2.5 3.3 5.1 5 7.1 2.1 2.5 4.5 4.8 7.3 6.6 0.2 0.1 0.5 0.3 0.7 0.4 2.2 1.1 4.7 1.3 7.1 1.7 1 0.2 2.1 0.4 3 0.8C40.4 40.9 32.9 34 29.2 29.9zM2.7 26.4C6 38.2 5 56.8 5 56.8h3.4c0-14.4-0.6-25.1 2.5-27.8C8.1 28.4 5 28.1 2.7 26.4z"/></svg>