<svg version="1.1" xmlns="http://www.w3.org/2000/svg" x="0" y="0" viewBox="0 0 483.8 483.8" xml:space="preserve"><polygon points="390.6 119.6 483.8 65.7 477 50.5 359.7 89.4 336.8 142.3 173.8 142.3 173.8 182.9 197.3 182.9 229.3 431.9 390.7 431.9 422.7 182.9 446.2 182.9 446.2 142.3 380.8 142.3 "/><polygon points="187.2 308.5 19.3 308.5 0 327.7 0 328.3 19.3 347.5 192.2 347.5 "/><path d="M176.2 222.7H85.3c-32.7 0-59.2 26.5-59.2 59.2v7h158.6L176.2 222.7zM26.1 367v7c0 32.7 26.5 59.2 59.2 59.2h100.9c5.8 0 11.4-0.8 16.7-2.4l-8.2-63.8H26.1z"/></svg>