<svg version="1.1" xmlns="http://www.w3.org/2000/svg" x="0" y="0" viewBox="0 0 113.2 113.2" xml:space="preserve"><path d="M100.4 46.1L74.7 4.8C73.1 2.2 69.2 0 66.1 0H47.1c-3.1 0-7 2.2-8.6 4.8L12.7 46.1c-1.6 2.7-0.4 4.8 2.7 4.8h2.4c3.1 0 5.7 2.5 5.7 5.7V69.2c0 1.3-0.7 2.6-1.8 3.3 -1.7 1.1-2.9 3-2.9 5.2 0 3.4 2.8 6.2 6.2 6.2 3.4 0 6.2-2.8 6.2-6.2 0-2.2-1.2-4.1-2.9-5.2 -1.1-0.7-1.8-1.9-1.8-3.3V56.6c0-3.1 2.5-5.7 5.7-5.7h14.1c3.1 0 5.7 2.5 5.7 5.7v4.5c0 3.1-1.9 5.6-3.6 6.7 -1.2 0.8-2 1.9-2 3.1 0 0 0 0.9 0 2.1 0 1.1-2.3 3.1-4.8 5 -3.4 2.7-7.4 7.2-7.4 13.7 0.2 6.6 3.5 12.8 6.1 16.9 1.7 2.6 6 4.5 9.1 4.5h14.9c3.1 0 7.3-1.9 9.1-4.5 2.7-4 6-10.3 6.1-16.9 0-6.5-4-11.1-7.4-13.7 -2.5-1.9-4.8-3.9-4.8-5 0-1.1 0-2.1 0-2.1 0-1.2-0.8-2.3-2-3.1 -1.8-1.1-3.6-3.6-3.6-6.7v-4.5c0-3.1 2.5-5.7 5.7-5.7h30.7C100.9 50.9 102.1 48.8 100.4 46.1z"/></svg>