<svg xmlns="http://www.w3.org/2000/svg" xmlns:xlink="http://www.w3.org/1999/xlink" preserveAspectRatio="xMidYMid" width="166.5" height="57" viewBox="0 0 166.5 57">
  <defs>
    <style>
      .cls-1 {
        fill: #1a9247;
      }

      .cls-1, .cls-2, .cls-3 {
        fill-rule: evenodd;
      }

      .cls-2 {
        fill: #161616;
        opacity: 0.9;
      }

      .cls-3 {
        fill: #fff;
      }
    </style>
  </defs>
  <g>
    <path d="M20.000,-0.000 L119.500,-0.000 L119.500,57.000 L20.000,57.000 C17.239,57.000 -0.000,39.761 -0.000,37.000 L-0.000,20.000 C-0.000,17.239 17.239,-0.000 20.000,-0.000 Z" class="cls-1"/>
    <path d="M124.000,-0.000 L161.500,-0.000 C164.261,-0.000 166.500,2.239 166.500,5.000 L166.500,52.000 C166.500,54.761 164.261,57.000 161.500,57.000 L124.000,57.000 L124.000,-0.000 Z" class="cls-2"/>
    <path d="M112.345,39.282 C110.604,41.736 108.244,42.962 105.264,42.962 C103.875,42.962 102.654,42.731 101.600,42.271 C100.547,41.810 99.513,41.017 98.499,39.892 L98.077,39.892 C98.358,41.736 98.499,42.892 98.499,43.361 L98.499,54.025 L89.346,54.025 L89.346,15.939 L96.790,15.939 L98.077,19.337 L98.499,19.337 C100.215,16.759 102.556,15.470 105.521,15.470 C108.486,15.470 110.796,16.697 112.450,19.150 C114.120,21.572 114.955,24.919 114.955,29.193 C114.955,33.466 114.084,36.830 112.345,39.282 ZM104.842,24.154 C104.312,23.162 103.414,22.665 102.150,22.665 C100.886,22.665 99.974,23.126 99.412,24.048 C98.850,24.970 98.546,26.415 98.499,28.384 L98.499,29.111 C98.499,31.376 98.803,33.021 99.412,34.044 C100.020,35.068 100.945,35.579 102.186,35.579 C103.426,35.579 104.312,35.072 104.842,34.056 C105.373,33.040 105.638,31.384 105.638,29.087 C105.638,26.790 105.373,25.146 104.842,24.154 ZM78.569,39.189 L78.031,39.189 C77.266,40.407 76.201,41.341 74.836,41.990 C73.470,42.638 71.867,42.962 70.025,42.962 C67.091,42.962 64.817,42.111 63.202,40.407 C61.587,38.705 60.779,36.314 60.779,33.236 L60.779,15.939 L69.932,15.939 L69.932,30.447 C69.932,32.212 70.181,33.533 70.681,34.407 C71.180,35.283 71.984,35.720 73.092,35.720 C74.668,35.720 75.791,35.103 76.463,33.868 C77.133,32.634 77.469,30.533 77.469,27.564 L77.469,15.939 L86.622,15.939 L86.622,42.493 L79.716,42.493 L78.569,39.189 ZM46.023,42.962 C41.918,42.962 38.673,41.720 36.285,39.236 C33.913,36.736 32.727,33.349 32.727,29.075 C32.727,24.802 33.890,21.478 36.215,19.103 C38.540,16.681 41.817,15.470 46.046,15.470 C46.109,15.470 46.179,15.470 46.257,15.470 C48.738,15.470 50.970,16.025 52.952,17.134 C54.933,18.244 56.471,19.829 57.563,21.892 C58.655,23.954 59.202,26.298 59.202,28.923 C59.202,29.001 59.202,29.079 59.202,29.157 C59.202,33.501 58.031,36.888 55.690,39.318 C53.350,41.747 50.127,42.962 46.023,42.962 ZM48.972,23.978 C48.364,22.853 47.365,22.290 45.976,22.290 C44.587,22.290 43.580,22.853 42.956,23.978 C42.332,25.103 42.020,26.834 42.020,29.169 C42.020,31.505 42.332,33.255 42.956,34.419 C43.580,35.583 44.587,36.165 45.976,36.165 C47.365,36.165 48.364,35.587 48.972,34.431 C49.581,33.275 49.885,31.525 49.885,29.181 C49.885,26.837 49.581,25.103 48.972,23.978 ZM27.182,23.052 C26.284,22.794 25.368,22.665 24.431,22.665 C22.949,22.665 21.802,23.244 20.990,24.400 C20.179,25.556 19.773,27.189 19.773,29.298 C19.773,33.548 21.342,35.673 24.478,35.673 C27.178,35.673 29.753,34.892 32.203,33.329 L32.203,40.618 C29.846,42.181 27.014,42.962 23.706,42.962 C19.383,42.962 16.098,41.794 13.851,39.458 C11.604,37.123 10.480,33.748 10.480,29.333 C10.480,24.919 11.689,21.517 14.109,19.126 C16.527,16.689 19.968,15.470 24.431,15.470 C27.490,15.470 30.385,16.142 33.116,17.486 L30.424,24.259 C29.160,23.712 28.079,23.310 27.182,23.052 Z" class="cls-3"/>
    <path d="M154.624,36.163 C155.874,36.163 157.351,35.858 159.054,35.249 L159.054,41.929 C157.804,42.476 156.624,42.851 155.515,43.054 C154.405,43.288 153.101,43.405 151.601,43.405 C148.554,43.405 146.343,42.659 144.968,41.167 C143.593,39.675 142.906,37.351 142.906,34.194 L142.906,23.249 L139.695,23.249 L139.695,19.546 L143.773,16.640 L146.140,11.062 L152.140,11.062 L152.140,16.382 L158.656,16.382 L158.656,23.249 L152.140,23.249 L152.140,33.585 C152.140,35.304 152.968,36.163 154.624,36.163 ZM134.295,13.804 C131.045,13.804 129.420,12.460 129.420,9.772 C129.420,8.382 129.807,7.355 130.580,6.690 C131.353,6.026 132.580,5.694 134.260,5.694 C135.939,5.694 137.178,6.034 137.974,6.714 C138.771,7.394 139.170,8.413 139.170,9.772 C139.170,12.460 137.545,13.804 134.295,13.804 ZM138.818,42.937 L129.654,42.937 L129.654,16.382 L138.818,16.382 L138.818,42.937 Z" class="cls-3"/>
  </g>
</svg>
