<svg version="1.1" xmlns="http://www.w3.org/2000/svg" x="0" y="0" viewBox="0 0 334.5 334.5" xml:space="preserve"><path d="M182.5 31.3h-58.9c-6.7 0-12.1 5.4-12.1 12.1v208.2c0 6.7 5.4 12.1 12.1 12.1h58.9c6.7 0 12.1-5.4 12.1-12.1V43.4C194.6 36.8 189.1 31.3 182.5 31.3zM153 245.1c-12.9 0-23.5-10.5-23.5-23.5 0-12.9 10.5-23.5 23.5-23.5s23.5 10.5 23.5 23.5C176.5 234.6 165.9 245.1 153 245.1zM183.7 143.5c0 4.4-3.6 8.1-8.1 8.1h-45.2c-4.4 0-8.1-3.6-8.1-8.1V60.1c0-4.4 3.6-8.1 8.1-8.1h45.2c4.4 0 8.1 3.6 8.1 8.1L183.7 143.5 183.7 143.5z"/><path d="M157.8 77.4h-25.2c-2.2 0-4-1.8-4-4 0-2.2 1.8-4 4-4h25.2c2.2 0 4 1.8 4 4C161.9 75.6 160.1 77.4 157.8 77.4z"/><path d="M84.5 31.3H25.6c-6.7 0-12.1 5.4-12.1 12.1v208.2c0 6.7 5.4 12.1 12.1 12.1h58.9c6.7 0 12.1-5.4 12.1-12.1V43.4C96.6 36.8 91.1 31.3 84.5 31.3zM55 245.1c-12.9 0-23.5-10.5-23.5-23.5 0-12.9 10.5-23.5 23.5-23.5 12.9 0 23.5 10.5 23.5 23.5C78.5 234.6 68 245.1 55 245.1zM85.7 143.5c0 4.4-3.6 8.1-8.1 8.1H32.4c-4.4 0-8.1-3.6-8.1-8.1V60.1c0-4.4 3.6-8.1 8.1-8.1H77.6c4.4 0 8.1 3.6 8.1 8.1V143.5z"/><path d="M59.9 77.4H34.7c-2.2 0-4-1.8-4-4 0-2.2 1.8-4 4-4h25.2c2.2 0 4 1.8 4 4C63.9 75.6 62.1 77.4 59.9 77.4z"/><path d="M59.9 96.6H34.7c-2.2 0-4-1.8-4-4 0-2.2 1.8-4 4-4h25.2c2.2 0 4 1.8 4 4S62.1 96.6 59.9 96.6z"/><path d="M59.9 115.8H34.7c-2.2 0-4-1.8-4-4 0-2.2 1.8-4 4-4h25.2c2.2 0 4 1.8 4 4C63.9 114 62.1 115.8 59.9 115.8z"/><path d="M320.9 241.1L289.8 35.2c-1-6.6-7.2-11.2-13.8-10.2l-58.3 8.8c-6.6 1-11.2 7.2-10.2 13.8l31.1 205.9c1 6.6 7.2 11.2 13.8 10.2l58.3-8.8C317.3 253.9 321.9 247.7 320.9 241.1zM242.5 151.7c-4.4 0.7-8.5-2.4-9.2-6.8L220.8 62.5c-0.7-4.4 2.4-8.5 6.8-9.2l44.7-6.8c4.4-0.7 8.5 2.4 9.2 6.8l12.5 82.5c0.7 4.4-2.4 8.5-6.8 9.2L242.5 151.7zM294.2 231.5c-3.7 5-9.2 8.3-15.4 9.3 -1.2 0.2-2.4 0.3-3.5 0.3 -11.5 0-21.5-8.6-23.2-20 -0.9-6.2 0.6-12.4 4.3-17.4 3.7-5 9.2-8.3 15.4-9.3 1.2-0.2 2.4-0.3 3.5-0.3 11.5 0 21.5 8.6 23.2 20C299.4 220.3 297.9 226.4 294.2 231.5z"/><path d="M231.6 68.7c-2 0-3.7-1.4-4-3.4 -0.3-2.2 1.2-4.3 3.4-4.6l24.9-3.8c2.2-0.3 4.3 1.2 4.6 3.4 0.3 2.2-1.2 4.3-3.4 4.6l-24.9 3.8C232 68.7 231.8 68.7 231.6 68.7z"/><path d="M234.5 87.3c-2 0-3.7-1.4-4-3.4 -0.3-2.2 1.2-4.3 3.4-4.6l38.8-5.9c2.2-0.3 4.3 1.2 4.6 3.4 0.3 2.2-1.2 4.3-3.4 4.6l-38.8 5.9C234.9 87.3 234.7 87.3 234.5 87.3z"/><path d="M334.5 300.6c0 5-4 9-9 9H9c-4.9 0-9-4-9-9v-7.9c0-4.9 4.1-9 9-9h316.5c5 0 9 4.1 9 9V300.6z"/></svg>