<svg version="1.1" xmlns="http://www.w3.org/2000/svg" x="0" y="0" viewBox="0 0 512 512" enable-background="new 0 0 512 512" xml:space="preserve"><path d="M503.6 235c-0.4-10-7.8-18.3-17.8-19.5l-7.8-1 -101.2-74.6c-19.7-14.5-44.5-19.3-68.2-12.9 -8.5 2.3-13.5 11-11.3 19.5 2.3 8.5 11.1 13.5 19.5 11.3 14.2-3.8 29.2-1 41.1 7.8l60.7 44.8c-12.5 0.2-25 1.1-37.5 2.8 -19 2.6-38.1 6.7-56.1 11.9l-9.6 1.9c-37.2 7.3-75.6 7.4-113.2 0.3l-10.9-2c-18.6-5.3-37.7-9.4-56.7-12 -12.5-1.7-25-2.6-37.5-2.8l60.7-44.8c11.9-8.8 26.9-11.6 41.1-7.8 8.4 2.3 17.2-2.8 19.5-11.3 2.3-8.5-2.8-17.2-11.3-19.5 -23.6-6.4-48.5-1.6-68.2 12.9L37.8 214.5l-7.8 1c-10 1.3-17.4 9.5-17.8 19.5l-0.6 17.7c-0.3 8.5 4.7 16.3 11.7 19 3 1.6 4.9 4.2 5.1 7l2.3 33.5c4 40.4 37.5 71.6 78 72.7l37.3 1c27.8 0 53.3-14.2 68.3-38.2l30.1-52.8c2-3 7.5-4.1 12.5-4.1 0 0 2.2 0 2.2 0 4.8 0 10.4 1.3 12 3.6l30.5 53.6c14.8 23.7 40.3 37.9 68.2 37.9l37.3-1c40.5-1 74-32.3 78.1-72.9l2.3-33.2c0.2-2.8 2.1-5.4 4.3-6.6 7.8-3 12.8-10.8 12.5-19.3L503.6 235zM408.2 245.9c5.7 0 10.6 0.3 14.8 0.8 13.4 1.8 27.3 10.7 27.9 26.4l1.4 34.3c0.5 11.7-3.7 22.9-11.7 31.5 -8 8.6-18.8 13.6-30.5 14.1 0 0-29.3 1.1-30.9 1.1 -53.3 0-68.4-53.2-69-55.3 -2.5-10-0.7-20.6 4.9-29.2 5.6-8.6 14.7-14.6 24.8-16.3C369 248.3 391.4 245.9 408.2 245.9zM136.7 354.1c-1.7 0-31-1.1-31-1.1 -11.7-0.4-22.5-5.5-30.5-14.1 -8-8.6-12.1-19.8-11.7-31.5l1.4-34.2c0.6-15.7 14.4-24.6 27.9-26.4 16.6-2.2 44.1-0.1 83.2 6.5 10.1 1.7 19.1 7.7 24.8 16.3 5.6 8.6 7.4 19.3 4.9 29.1C205.1 300.9 190 354.1 136.7 354.1z"/></svg>