<svg version="1.1" xmlns="http://www.w3.org/2000/svg" x="0" y="0" viewBox="0 0 486.4 486.4" xml:space="preserve"><path d="M0 152v60.8h212.8v-91.2H30.4C13.6 121.6 0 135.2 0 152zM425.6 45.6C425.6 20.4 406.8 0 364.8 0c-39.3 0-70.3 17.7-91.2 38.2 -9.2-5.4-19.8-8.8-31.3-8.8 -11 0-21.2 3.1-30.1 8.1C191.3 17.3 160.5 0 121.6 0 79.6 0 60.8 20.4 60.8 45.6s18.8 45.6 60.8 45.6h121.6l0-0.2h0.1l-0.1 0.2h121.6C406.8 91.2 425.6 70.8 425.6 45.6zM188.9 60.8h-67.3c-13.9 0-30.4-2.6-30.4-15.2s16.5-15.2 30.4-15.2c30.2 0 53.1 13.5 68.6 28L188.9 60.8zM295.1 59.5c15.4-15 38.9-29.1 69.7-29.1 13.9 0 30.4 2.6 30.4 15.2s-16.5 15.2-30.4 15.2h-69L295.1 59.5zM30.4 456c0 16.8 13.6 30.4 30.4 30.4h152V243.2H30.4V456zM456 121.6h-181.1v91.2h211.5v-60.8C486.4 135.2 472.8 121.6 456 121.6zM274.9 486.4h150.7c16.8 0 30.4-13.6 30.4-30.4V243.2h-181.1V486.4z"/></svg>