<svg version="1.1" xmlns="http://www.w3.org/2000/svg" x="0" y="0" viewBox="0 0 306.2 306.2" xml:space="preserve"><path d="M250.7 193l-55.8-2.9 -30.6 51.7c-3.1 5.2-7 8.1-11 8.1 -4.1 0-8-2.9-11-8.3l-29.4-51.7 -57.5 3.1c-15.4 0.8-33.5 7-41.4 14C6.2 214.2 0 231.9 0 247.4v17.2c0 16.1 13.1 29.2 29.2 29.2H277.1c16.1 0 29.2-13.1 29.2-29.2v-17.2c0-15.5-6.2-33.3-14.1-40.4C284.2 200 266.1 193.8 250.7 193zM147.8 234c2.3 5.4 6.5 5.5 9.2 0.4l9.3-17.6 -10.8-11.5 8.2-8.5 -10.6-6.3 -10.4 6 7.9 8.6 -10.8 10.8L147.8 234zM154.4 12.4c-45.3 0-82.2 36.9-82.2 82.2 0 45.3 36.9 82.2 82.2 82.2 25.8 0 48.9-12 63.9-30.7l58.3 41.7c7.1 5.1 16.1 2.9 20.1-5l6.5-13c3.9-7.9 0.3-16.4-8-19.1l-63.5-28.3c3.1-8.7 4.9-18 4.9-27.7C236.6 49.2 199.7 12.4 154.4 12.4zM154.4 155.5c-33.6 0-61-27.4-61-61 0-33.6 27.4-61 61-61 33.6 0 61 27.4 61 61C215.4 128.2 188 155.5 154.4 155.5zM154.4 42.4c-28.7 0-52.1 23.4-52.1 52.1 0 1.5 1.2 2.7 2.7 2.7s2.7-1.2 2.7-2.7c0-25.8 21-46.8 46.8-46.8 1.5 0 2.7-1.2 2.7-2.7S155.9 42.4 154.4 42.4z"/></svg>