<svg version="1.1" xmlns="http://www.w3.org/2000/svg" x="0" y="0" viewBox="0 0 475.1 475.1" xml:space="preserve"><path d="M467.1 99.4c-5.3-5.3-11.8-8-19.4-8h-82.2V64c0-12.6-4.5-23.3-13.4-32.3 -8.9-8.9-19.7-13.4-32.3-13.4H155.3c-12.6 0-23.3 4.5-32.3 13.4 -8.9 8.9-13.4 19.7-13.4 32.3v27.4H27.4c-7.6 0-14.1 2.7-19.4 8S0 111.2 0 118.8v36.5c0 13.5 3.9 27.1 11.8 40.8 7.9 13.7 18.6 26.1 32 37.1 13.4 11 29.9 20.3 49.4 27.8 19.5 7.5 40 11.8 61.5 12.7 8 10.3 17 19.3 27.1 27.1 7.2 6.5 12.2 13.4 15 20.7 2.8 7.3 4.1 15.8 4.1 25.6 0 10.3-2.9 18.9-8.7 26 -5.8 7.1-15.1 10.6-27.8 10.6 -14.3 0-27 4.3-38.1 13 -11.1 8.7-16.7 19.6-16.7 32.7v18.3c0 2.7 0.9 4.9 2.6 6.6 1.7 1.7 3.9 2.6 6.6 2.6h237.5c2.7 0 4.9-0.9 6.6-2.6 1.7-1.7 2.6-3.9 2.6-6.6v-18.3c0-13.1-5.6-24-16.7-32.7 -11.1-8.7-23.8-13-38.1-13 -12.7 0-22-3.5-27.8-10.6 -5.8-7-8.7-15.7-8.7-26 0-9.7 1.4-18.2 4.1-25.5 2.8-7.3 7.8-14.2 15-20.7 10.1-7.8 19.1-16.8 27.1-27.1 21.5-0.9 42-5.2 61.5-12.7 19.5-7.5 36-16.8 49.4-27.8 13.4-11 24.1-23.4 32-37.1 7.9-13.7 11.8-27.3 11.8-40.8v-36.5C475.1 111.2 472.4 104.7 467.1 99.4zM63.5 201.6c-18-16-27-31.4-27-46.3v-27.4h73.1c0 39.8 7 75.1 21.1 105.9C103.9 228.3 81.5 217.6 63.5 201.6zM438.5 155.3c0 14.8-9 30.3-27 46.3 -18 16-40.4 26.7-67.2 32.3 14.1-30.8 21.1-66.1 21.1-105.9h73.1V155.3z"/></svg>