<?xml version="1.0" encoding="utf-8"?>
<!-- Generator: Adobe Illustrator 19.0.1, SVG Export Plug-In . SVG Version: 6.00 Build 0)  -->
<svg version="1.1" xmlns="http://www.w3.org/2000/svg" xmlns:xlink="http://www.w3.org/1999/xlink" x="0px" y="0px"
	 viewBox="0 0 205 44" style="enable-background:new 0 0 205 44;" xml:space="preserve">
<style type="text/css">
	.st0{enable-background:new    ;}
	.st1{fill-rule:evenodd;clip-rule:evenodd;}
	.st2{fill:#FFFFFF;}
	.st3{fill:#20D16C;}
</style>
<g id="Rounded_Rectangle_7_1_" class="st0">
	<g id="Rounded_Rectangle_7">
		<g>
			<path class="st1" d="M195,0H10C4.5,0,0,4.5,0,10v24c0,5.5,4.5,10,10,10h185c5.5,0,10-4.5,10-10V10C205,4.5,200.5,0,195,0z"/>
		</g>
	</g>
</g>
<g id="ועכשיו">
	<g>
		<path class="st2" d="M156.9,19.1h-2.1v-9h2.1V19.1z"/>
		<path class="st2" d="M158.6,16.1v-5.9h2.1v4.1l-1.4,1.8H158.6z"/>
		<path class="st2" d="M166.7,19.1h-4l-0.7-9h2l0.4,4.5c0.1,0,0.1,0,0.2,0c0.4,0,0.6-0.1,0.8-0.3c0.2-0.2,0.3-0.5,0.3-1l0.3-3.2h2
			l-0.3,3.2c-0.1,1.8-1.1,2.7-2.8,2.7c-0.1,0-0.2,0-0.4,0l0.1,1.4h2.2c0.8,0,1.3-0.3,1.7-0.9c0.4-0.6,0.7-1.4,0.7-2.5l0.3-4h2
			l-0.3,3.9c-0.1,0.8-0.2,1.5-0.3,2C170.3,18.1,168.9,19.1,166.7,19.1z"/>
		<path class="st2" d="M174.8,10c0.5,0,1,0.1,1.4,0.2s0.8,0.4,1,0.6s0.5,0.6,0.6,0.9c0.3,0.7,0.5,1.4,0.5,2.3v1c0,0.4,0,0.8-0.1,1.2
			c-0.1,0.4-0.2,0.7-0.3,1.1s-0.4,0.7-0.6,0.9c-0.3,0.3-0.6,0.5-1,0.6c-0.4,0.2-0.9,0.2-1.5,0.2c-1,0-1.9-0.1-2.5-0.2v-1.7
			c0.7,0.1,1.5,0.1,2.3,0.1c0.8,0,1.3-0.3,1.5-0.9c0.1-0.3,0.2-0.8,0.2-1.3v-1.5c0-1.1-0.3-1.8-0.9-2.1c-0.2-0.1-0.5-0.2-0.8-0.2
			c-0.6,0-1.3,0.1-2.3,0.2v-1.6C173.1,10.1,174,10,174.8,10z"/>
		<path class="st2" d="M182.6,14.2l0.5,2.8c0.4-0.2,0.6-0.6,0.8-1c0.2-0.4,0.3-1,0.4-1.7l0.4-4.2h2l-0.3,3.9
			c-0.1,0.8-0.2,1.5-0.4,2.1c-0.6,1.6-2,2.6-4.1,3l-2.8,0.4v-1.6l2.2-0.3l-1.9-7.4h2.1L182.6,14.2z"/>
		<path class="st2" d="M190.3,19.1h-2.1v-9h2.1V19.1z"/>
	</g>
</g>
<g id="בחינם">
	<g>
		<path class="st3" d="M154.6,31.7V22c0.4-0.1,0.9-0.2,1.7-0.2c0.7-0.1,1.4-0.1,2.1-0.1c1.4,0,2.4,0.2,3,0.7
			c0.6,0.5,0.9,1.2,0.9,2.2v7.1H154.6z M159.9,30v-5.3c0-0.5-0.2-0.8-0.5-0.9c-0.3-0.1-0.8-0.2-1.4-0.2c-0.3,0-0.7,0-1.2,0.1V30
			H159.9z"/>
		<path class="st3" d="M164.1,21.8c0.4-0.1,0.9-0.1,1.3-0.1c0.5,0,0.9,0.1,1.2,0.2c0.3,0.1,0.6,0.2,0.8,0.4s0.4,0.4,0.5,0.7
			c0.2,0.5,0.3,1.1,0.3,1.8v4c0,0.5,0,1-0.1,1.5c-0.1,0.5-0.1,0.9-0.2,1.1l-0.1,0.4h-4.3V30h2.3c0.1-0.4,0.1-1,0.1-1.8v-3.4
			c0-0.6-0.1-1-0.4-1.1c-0.1-0.1-0.3-0.1-0.5-0.1c-0.4,0-0.7,0-1.1,0.1V21.8z"/>
		<path class="st3" d="M170.1,28.4v-6.5h2.3v4.6l-1.5,2H170.1z"/>
		<path class="st3" d="M174.2,31.7V22c0.4-0.1,0.9-0.2,1.7-0.2c0.7-0.1,1.4-0.1,2-0.1c0.6,0,1.1,0,1.5,0.1c0.4,0.1,0.8,0.2,1,0.3
			c0.3,0.1,0.5,0.3,0.7,0.5c0.2,0.2,0.3,0.4,0.4,0.7c0.1,0.3,0.2,0.6,0.2,0.9s0.1,0.6,0.1,1v6.5h-2.3v-6.5c0-1.2-0.6-1.8-1.9-1.8
			c-0.3,0-0.7,0-1.2,0.1v8.2H174.2z"/>
		<path class="st3" d="M186.1,21.7c1.6,0,2.7,0.3,3.2,1c0.3,0.3,0.5,0.7,0.5,1.1c0.1,0.4,0.1,0.9,0.1,1.5V30h1.1v1.8h-7.6V30h4.3
			v-4.7c0-1.2-0.6-1.8-1.9-1.8c-0.6,0-1.3,0-2,0.1l-0.4,0v-1.8C184.1,21.7,185,21.7,186.1,21.7z"/>
	</g>
</g>
<g id="ל-30_יום">
	<g>
		<path class="st2" d="M60.3,32.1v-18c0.7-0.2,1.7-0.3,3.1-0.4c1.4-0.1,2.7-0.2,4-0.2c2.6,0,4.4,0.4,5.5,1.3
			c1.1,0.9,1.7,2.2,1.7,4.1v13.2H60.3z M70.3,28.8v-9.9c0-0.9-0.3-1.4-1-1.7c-0.6-0.2-1.4-0.4-2.5-0.4c-0.6,0-1.4,0-2.3,0.1v11.9
			H70.3z"/>
		<path class="st2" d="M82.4,32.1h-4.2V13.8h4.2V32.1z"/>
		<path class="st2" d="M86,25.9V13.8h4.2v8.5l-2.8,3.7H86z"/>
		<path class="st2" d="M104.4,11c2.1,0,3.8,0.4,5,1.3c1.2,0.9,1.8,2.1,1.8,3.6c0,1.3-0.4,2.4-1.1,3.3c-0.8,0.9-1.8,1.5-3.2,1.9v0.1
			c1.6,0.2,2.9,0.7,3.7,1.5c0.8,0.8,1.3,1.9,1.3,3.3c0,2-0.7,3.6-2.1,4.7c-1.4,1.1-3.4,1.6-6.1,1.6c-2.2,0-4.2-0.4-5.8-1.1v-3.7
			c1.8,0.9,3.6,1.4,5.4,1.4c1.4,0,2.5-0.2,3.1-0.7c0.7-0.5,1-1.3,1-2.3c0-1-0.4-1.7-1.2-2.2s-2-0.6-3.7-0.6h-1.5v-3.4h1.6
			c1.6,0,2.8-0.2,3.5-0.6c0.7-0.4,1.1-1.1,1.1-2.2c0-1.6-1-2.4-2.9-2.4c-1.4,0-2.8,0.5-4.3,1.5l-2-3C99.6,11.7,101.8,11,104.4,11z"
			/>
		<path class="st2" d="M113.2,21.6c0-3.6,0.6-6.2,1.7-8c1.2-1.7,2.9-2.6,5.3-2.6s4.2,0.9,5.4,2.7s1.8,4.5,1.8,8.1s-0.6,6.2-1.7,8
			s-2.9,2.6-5.3,2.6s-4.2-0.9-5.3-2.7C113.8,27.9,113.2,25.2,113.2,21.6z M122.4,16.2c-0.4-1.1-1.2-1.7-2.2-1.7
			c-1,0-1.7,0.6-2.1,1.7c-0.4,1.1-0.6,2.9-0.6,5.5c0,2.5,0.2,4.4,0.6,5.5c0.4,1.1,1.1,1.6,2.2,1.6s1.7-0.6,2.2-1.7
			c0.4-1.1,0.7-2.9,0.7-5.5C123.1,19.2,122.9,17.3,122.4,16.2z"/>
		<path class="st2" d="M135.2,26.1h-7.4v-3.6h7.4V26.1z"/>
		<path class="st2" d="M140.6,13.8h9.4v2.8l-2.4,8.7l-1.5,6.8h-4.1l1.5-6.8l2.3-8.2h-9.4V10h4.2V13.8z"/>
	</g>
</g>
<g id="לעסקים">
	<g>
		<path class="st2" d="M15.7,21.7v-7.7c0.3-0.1,0.7-0.1,1.3-0.2c0.6-0.1,1.2-0.1,1.7-0.1c1.1,0,1.9,0.2,2.4,0.5
			c0.5,0.4,0.7,1,0.7,1.8v5.7H15.7z M20,20.2V16c0-0.4-0.1-0.6-0.4-0.7c-0.2-0.1-0.6-0.2-1.1-0.2c-0.3,0-0.6,0-1,0v5.1H20z"/>
		<path class="st2" d="M23.5,19v-5.2h1.8v3.6L24.1,19H23.5z"/>
		<path class="st2" d="M31.6,21.5v0.2h-1.8v-0.2c0-0.3,0.1-0.8,0.2-1.4c0.1-0.6,0.2-1.1,0.4-1.5l1.2-3.4h-4.4v-1.4h6.4v1.1l-1.3,3.6
			C31.8,19.7,31.6,20.6,31.6,21.5z M28.8,24.7h-1.7V17h1.7V24.7z"/>
		<path class="st2" d="M37.6,13.7c1,0,1.8,0.4,2.4,1.1s0.8,1.7,0.8,3s-0.3,2.3-0.9,3c-0.6,0.7-1.3,1.1-2.3,1.1s-1.8-0.4-2.3-1.1
			c-0.6-0.7-0.9-1.7-0.9-3c0-0.5,0.1-1,0.3-1.4s0.4-0.8,0.6-1v0l-0.8,0.1v-1.4C35.4,13.7,36.5,13.7,37.6,13.7z M36.2,17.7
			c0,1.7,0.5,2.6,1.4,2.6s1.4-0.9,1.4-2.6c0-1.7-0.5-2.6-1.4-2.6l-0.7,0C36.5,15.8,36.2,16.7,36.2,17.7z"/>
		<path class="st2" d="M44.7,17.3l0.5,2.5c0.3-0.2,0.6-0.5,0.7-0.9c0.2-0.4,0.3-0.9,0.3-1.5l0.3-3.7h1.8l-0.3,3.4
			C48,18,47.9,18.6,47.7,19c-0.6,1.4-1.7,2.3-3.6,2.6L41.7,22v-1.4l1.9-0.3L42,13.8h1.8L44.7,17.3z"/>
		<path class="st2" d="M51.2,13.8h4V15l-1,3.7l-0.6,2.9h-1.7l0.6-2.9l1-3.5h-4v-3h1.8V13.8z"/>
	</g>
</g>
<g id="חדשים">
	<g>
		<path class="st2" d="M21.1,33v-7.7c0.3-0.1,0.7-0.1,1.3-0.2s1.2-0.1,1.7-0.1c1.1,0,1.9,0.2,2.4,0.5c0.5,0.4,0.7,1,0.7,1.8V33H21.1
			z M25.4,31.6v-4.3c0-0.4-0.1-0.6-0.4-0.7c-0.2-0.1-0.6-0.2-1.1-0.2c-0.3,0-0.6,0-1,0v5.1H25.4z"/>
		<path class="st2" d="M28.9,30.3v-5.2h1.8v3.6l-1.2,1.6H28.9z"/>
		<path class="st2" d="M36.2,33h-3.4l-0.6-7.9h1.7l0.3,3.9c0,0,0.1,0,0.2,0c0.3,0,0.5-0.1,0.7-0.3c0.2-0.2,0.2-0.5,0.3-0.9l0.2-2.8
			h1.7L37.1,28c-0.1,1.6-0.9,2.4-2.4,2.4c-0.1,0-0.2,0-0.3,0l0.1,1.2h1.9c0.7,0,1.2-0.3,1.5-0.8c0.4-0.5,0.6-1.3,0.6-2.2l0.3-3.5
			h1.7l-0.3,3.4c-0.1,0.7-0.2,1.3-0.3,1.8C39.4,32.1,38.1,33,36.2,33z"/>
		<path class="st2" d="M47.3,25.1v1.3c-0.2,0.1-0.3,0.2-0.5,0.3c-0.2,0.2-0.3,0.3-0.4,0.5c-0.1,0.2-0.1,0.5-0.1,0.8V33h-1.8v-4.9
			c0-0.2,0-0.4,0.1-0.6c0.1-0.2,0.1-0.3,0.2-0.4c0.2-0.2,0.3-0.3,0.5-0.4l0.1,0v0h-4.1v-1.4H47.3z"/>
		<path class="st2" d="M48.6,33v-7.7c0.3-0.1,0.7-0.1,1.3-0.2S51,25,51.5,25s0.9,0,1.2,0.1c0.3,0.1,0.6,0.1,0.8,0.3
			c0.2,0.1,0.4,0.3,0.6,0.4c0.1,0.2,0.3,0.3,0.3,0.6s0.1,0.5,0.2,0.7c0,0.2,0,0.5,0,0.8V33h-1.8v-5.1c0-0.9-0.5-1.4-1.5-1.4
			c-0.3,0-0.6,0-1,0V33H48.6z"/>
	</g>
</g>
</svg>
